<svg width="509" height="129" viewBox="0 0 509 129" fill="none" xmlns="http://www.w3.org/2000/svg">
<g clip-path="url(#clip0)">
<path d="M-0.015625 70.1729C-0.015625 63.1725 1.60303 57.611 4.84033 53.4883C8.07764 49.3379 12.3664 47.2627 17.7065 47.2627C23.1851 47.2627 27.46 49.1995 30.5312 53.0732L30.9048 48.0928H37.9189V91.9209C37.9189 97.7314 36.1896 102.311 32.731 105.659C29.3 109.007 24.6792 110.681 18.8687 110.681C15.6313 110.681 12.4632 109.989 9.36426 108.605C6.2653 107.222 3.89958 105.327 2.26709 102.919L6.25146 98.3125C9.54411 102.38 13.57 104.414 18.3291 104.414C22.0645 104.414 24.9697 103.362 27.0449 101.259C29.1478 99.1564 30.1992 96.1958 30.1992 92.3774V88.5176C27.1279 92.0592 22.936 93.8301 17.6235 93.8301C12.3664 93.8301 8.10531 91.7134 4.84033 87.48C1.60303 83.2466 -0.015625 77.4775 -0.015625 70.1729ZM7.7041 71.0444C7.7041 76.1079 8.7417 80.0923 10.8169 82.9976C12.8921 85.8752 15.7974 87.314 19.5327 87.314C24.3748 87.314 27.9303 85.1143 30.1992 80.7148V60.2119C27.8473 55.9232 24.3195 53.7788 19.6157 53.7788C15.8804 53.7788 12.9613 55.2314 10.8584 58.1367C8.75553 61.042 7.7041 65.3446 7.7041 71.0444Z" fill="#243CD6"/>
<path d="M57.2183 53.5298C60.6216 49.3517 65.0487 47.2627 70.4995 47.2627C79.9901 47.2627 84.7769 52.6167 84.8599 63.3247V93H77.1816V63.2832C77.154 60.0459 76.4069 57.6525 74.9404 56.103C73.5016 54.5535 71.2466 53.7788 68.1753 53.7788C65.6851 53.7788 63.4992 54.4429 61.6177 55.771C59.7362 57.0991 58.2697 58.8423 57.2183 61.0005V93H49.54V29.25H57.2183V53.5298Z" fill="#243CD6"/>
<path d="M94.3228 70.1313C94.3228 65.7319 95.1805 61.7752 96.896 58.2612C98.6392 54.7472 101.046 52.0356 104.118 50.1265C107.217 48.2173 110.744 47.2627 114.701 47.2627C120.816 47.2627 125.755 49.3794 129.518 53.6128C133.309 57.8462 135.204 63.4769 135.204 70.5049V71.0444C135.204 75.4162 134.36 79.3452 132.672 82.8315C131.012 86.2902 128.619 88.988 125.492 90.9248C122.393 92.8617 118.824 93.8301 114.784 93.8301C108.697 93.8301 103.758 91.7134 99.9673 87.48C96.2043 83.2466 94.3228 77.6436 94.3228 70.6709V70.1313ZM102.042 71.0444C102.042 76.0249 103.191 80.0231 105.487 83.0391C107.812 86.055 110.91 87.563 114.784 87.563C118.686 87.563 121.785 86.0412 124.081 82.9976C126.378 79.9263 127.526 75.6375 127.526 70.1313C127.526 65.2062 126.35 61.2218 123.998 58.1782C121.674 55.1069 118.575 53.5713 114.701 53.5713C110.91 53.5713 107.853 55.0793 105.529 58.0952C103.205 61.1112 102.042 65.4276 102.042 71.0444Z" fill="#243CD6"/>
<path d="M170.98 81.0884C170.98 79.0132 170.192 77.4084 168.615 76.2739C167.065 75.1118 164.34 74.1157 160.438 73.2856C156.565 72.4556 153.48 71.4595 151.183 70.2974C148.914 69.1353 147.226 67.7518 146.12 66.147C145.041 64.5422 144.501 62.633 144.501 60.4194C144.501 56.7394 146.05 53.6266 149.149 51.0811C152.276 48.5355 156.26 47.2627 161.103 47.2627C166.194 47.2627 170.316 48.577 173.471 51.2056C176.653 53.8341 178.244 57.196 178.244 61.291H170.524C170.524 59.1882 169.625 57.3758 167.826 55.854C166.055 54.3322 163.814 53.5713 161.103 53.5713C158.308 53.5713 156.122 54.18 154.545 55.3975C152.968 56.6149 152.179 58.2059 152.179 60.1704C152.179 62.0243 152.912 63.4215 154.379 64.3623C155.845 65.3031 158.488 66.2023 162.306 67.0601C166.152 67.9178 169.265 68.9416 171.645 70.1313C174.024 71.3211 175.781 72.7599 176.916 74.4478C178.078 76.1079 178.659 78.1416 178.659 80.5488C178.659 84.5609 177.054 87.7843 173.844 90.2192C170.635 92.6265 166.47 93.8301 161.352 93.8301C157.755 93.8301 154.573 93.1937 151.806 91.9209C149.039 90.6481 146.867 88.8773 145.29 86.6084C143.74 84.3118 142.965 81.8354 142.965 79.1792H150.644C150.782 81.7524 151.806 83.8 153.715 85.3218C155.652 86.8159 158.197 87.563 161.352 87.563C164.257 87.563 166.581 86.9819 168.324 85.8198C170.095 84.63 170.98 83.0529 170.98 81.0884Z" fill="#243CD6"/>
<path d="M199.079 37.2188V48.0928H207.462V54.0278H199.079V81.877C199.079 83.6755 199.452 85.0312 200.199 85.9443C200.946 86.8298 202.219 87.2725 204.018 87.2725C204.903 87.2725 206.12 87.1064 207.67 86.7744V93C205.65 93.5534 203.686 93.8301 201.776 93.8301C198.345 93.8301 195.758 92.7925 194.015 90.7173C192.272 88.6421 191.4 85.6953 191.4 81.877V54.0278H183.224V48.0928H191.4V37.2188H199.079Z" fill="#243CD6"/>
<path fill-rule="evenodd" clip-rule="evenodd" d="M237 9C237 4.02943 241.029 0 246 0H500C504.971 0 509 4.02944 509 9V120C509 124.971 504.971 129 500 129H246C241.029 129 237 124.971 237 120V9ZM433.062 32.5703H441.072V75.3608C441.072 81.1437 439.329 85.6676 435.843 88.9326C432.384 92.1976 427.763 93.8301 421.98 93.8301C415.976 93.8301 411.3 92.2944 407.952 89.2231C404.604 86.1519 402.93 81.8493 402.93 76.3154H410.899C410.899 79.7741 411.84 82.4718 413.721 84.4087C415.63 86.3455 418.383 87.314 421.98 87.314C425.273 87.314 427.929 86.2764 429.949 84.2012C431.997 82.126 433.034 79.2207 433.062 75.4854V32.5703ZM457.508 58.8423C460.634 61.6922 465.615 64.0994 472.449 66.064C477.9 67.6411 481.663 69.2459 483.738 70.8784C485.813 72.4832 486.851 74.766 486.851 77.7266C486.851 80.6872 485.73 83.0252 483.489 84.7407C481.248 86.4562 478.025 87.314 473.819 87.314C469.309 87.314 465.698 86.2625 462.986 84.1597C460.302 82.0291 458.96 79.1377 458.96 75.4854H450.95C450.95 78.9993 451.919 82.1398 453.855 84.9067C455.82 87.6737 458.601 89.8595 462.198 91.4644C465.795 93.0415 469.668 93.8301 473.819 93.8301C480.21 93.8301 485.315 92.3636 489.134 89.4307C492.952 86.4701 494.861 82.541 494.861 77.6436C494.861 74.5723 494.17 71.9022 492.786 69.6333C491.43 67.3644 489.327 65.3861 486.478 63.6982C483.655 61.9827 479.726 60.4194 474.69 59.0083C469.682 57.5972 466.127 56.0477 464.024 54.3599C461.949 52.6444 460.911 50.5553 460.911 48.0928C460.911 45.0215 462.004 42.6281 464.19 40.9126C466.403 39.1694 469.475 38.2979 473.404 38.2979C477.637 38.2979 480.916 39.3493 483.24 41.4521C485.564 43.5273 486.727 46.3911 486.727 50.0435H494.737C494.737 46.6955 493.838 43.6104 492.039 40.7881C490.268 37.9658 487.75 35.7523 484.485 34.1475C481.248 32.5426 477.554 31.7402 473.404 31.7402C467.317 31.7402 462.364 33.3035 458.545 36.4302C454.755 39.5291 452.859 43.4582 452.859 48.2173C452.859 52.423 454.409 55.9647 457.508 58.8423ZM353.582 72.2065L348.768 77.2285V93H341.089V29.25H348.768V67.8071L352.876 62.8682L366.863 48.0928H376.202L358.729 66.8525L378.235 93H369.229L353.582 72.2065ZM385.457 85.6538C384.682 86.5392 384.295 87.646 384.295 88.9741C384.295 90.2469 384.682 91.3122 385.457 92.1699C386.259 93.0277 387.449 93.4565 389.026 93.4565C390.604 93.4565 391.793 93.0277 392.596 92.1699C393.426 91.3122 393.841 90.2469 393.841 88.9741C393.841 87.646 393.426 86.5392 392.596 85.6538C391.793 84.7684 390.604 84.3257 389.026 84.3257C387.449 84.3257 386.259 84.7684 385.457 85.6538ZM301.412 48.0928L301.661 53.7373C305.092 49.4209 309.574 47.2627 315.108 47.2627C324.598 47.2627 329.385 52.6167 329.468 63.3247V93H321.79V63.2832C321.762 60.0459 321.015 57.6525 319.549 56.103C318.11 54.5535 315.855 53.7788 312.784 53.7788C310.293 53.7788 308.108 54.4429 306.226 55.771C304.345 57.0991 302.878 58.8423 301.827 61.0005V93H294.148V48.0928H301.412ZM274.144 93H281.822V48.0928H274.144V93ZM273.521 36.1812C273.521 34.936 273.895 33.8846 274.642 33.0269C275.416 32.1691 276.551 31.7402 278.045 31.7402C279.539 31.7402 280.674 32.1691 281.448 33.0269C282.223 33.8846 282.61 34.936 282.61 36.1812C282.61 37.4263 282.223 38.4639 281.448 39.2939C280.674 40.124 279.539 40.5391 278.045 40.5391C276.551 40.5391 275.416 40.124 274.642 39.2939C273.895 38.4639 273.521 37.4263 273.521 36.1812ZM253.475 93H261.153V29.25H253.475V93Z" fill="#2433D1"/>
</g>
<defs>
<clipPath id="clip0">
<rect width="508.7" height="128.9" fill="white"/>
</clipPath>
</defs>
</svg>
