<svg width="1500" height="700" viewBox="0 0 1500 700" fill="none" xmlns="http://www.w3.org/2000/svg">
<rect width="1500" height="700" fill="#2433D1"/>
<path d="M424 356.756C424 347.802 426.07 340.688 430.211 335.415C434.352 330.107 439.837 327.452 446.668 327.452C453.675 327.452 459.143 329.93 463.072 334.884L463.549 328.514H472.521V384.573C472.521 392.005 470.309 397.863 465.885 402.145C461.497 406.427 455.586 408.568 448.154 408.568C444.014 408.568 439.961 407.684 435.998 405.914C432.034 404.144 429.008 401.72 426.92 398.641L432.016 392.749C436.228 397.951 441.377 400.552 447.464 400.552C452.242 400.552 455.958 399.207 458.612 396.518C461.302 393.828 462.647 390.041 462.647 385.157V380.22C458.719 384.75 453.357 387.015 446.562 387.015C439.837 387.015 434.387 384.308 430.211 378.893C426.07 373.478 424 366.099 424 356.756ZM433.874 357.871C433.874 364.347 435.201 369.444 437.856 373.16C440.51 376.84 444.226 378.681 449.004 378.681C455.197 378.681 459.745 375.867 462.647 370.24V344.015C459.639 338.53 455.126 335.787 449.11 335.787C444.332 335.787 440.598 337.645 437.909 341.361C435.219 345.077 433.874 350.58 433.874 357.871Z" fill="white"/>
<path d="M497.206 335.468C501.559 330.124 507.222 327.452 514.194 327.452C526.333 327.452 532.456 334.3 532.562 347.997V385.953H522.741V347.944C522.705 343.803 521.75 340.742 519.874 338.76C518.034 336.778 515.149 335.787 511.221 335.787C508.036 335.787 505.24 336.636 502.833 338.335C500.427 340.034 498.551 342.263 497.206 345.024V385.953H487.385V304.413H497.206V335.468Z" fill="white"/>
<path d="M544.665 356.703C544.665 351.076 545.763 346.015 547.957 341.52C550.186 337.026 553.265 333.557 557.194 331.115C561.158 328.673 565.67 327.452 570.731 327.452C578.552 327.452 584.869 330.16 589.683 335.575C594.531 340.989 596.955 348.191 596.955 357.181V357.871C596.955 363.463 595.876 368.488 593.717 372.947C591.594 377.371 588.532 380.822 584.533 383.299C580.569 385.777 576.004 387.015 570.837 387.015C563.051 387.015 556.734 384.308 551.885 378.893C547.072 373.478 544.665 366.312 544.665 357.393V356.703ZM554.539 357.871C554.539 364.241 556.008 369.355 558.946 373.213C561.918 377.07 565.882 378.999 570.837 378.999C575.827 378.999 579.791 377.053 582.728 373.16C585.666 369.231 587.135 363.746 587.135 356.703C587.135 350.403 585.63 345.307 582.622 341.414C579.649 337.486 575.686 335.521 570.731 335.521C565.882 335.521 561.972 337.45 558.999 341.308C556.026 345.165 554.539 350.686 554.539 357.871Z" fill="white"/>
<path d="M642.716 370.718C642.716 368.063 641.707 366.011 639.69 364.56C637.708 363.073 634.222 361.799 629.232 360.737C624.277 359.676 620.331 358.402 617.394 356.915C614.492 355.429 612.333 353.659 610.917 351.607C609.537 349.554 608.847 347.112 608.847 344.281C608.847 339.574 610.829 335.592 614.793 332.336C618.792 329.08 623.888 327.452 630.081 327.452C636.593 327.452 641.867 329.133 645.901 332.495C649.971 335.858 652.006 340.158 652.006 345.395H642.132C642.132 342.706 640.982 340.388 638.681 338.441C636.416 336.495 633.55 335.521 630.081 335.521C626.507 335.521 623.711 336.3 621.694 337.857C619.676 339.414 618.668 341.449 618.668 343.962C618.668 346.333 619.606 348.121 621.481 349.324C623.357 350.527 626.737 351.677 631.621 352.774C636.54 353.872 640.522 355.181 643.565 356.703C646.609 358.225 648.856 360.065 650.307 362.224C651.794 364.347 652.537 366.949 652.537 370.028C652.537 375.159 650.484 379.282 646.379 382.397C642.274 385.476 636.947 387.015 630.4 387.015C625.799 387.015 621.729 386.201 618.19 384.573C614.651 382.945 611.873 380.68 609.855 377.778C607.874 374.841 606.883 371.673 606.883 368.276H616.704C616.881 371.567 618.19 374.186 620.632 376.133C623.109 378.044 626.365 378.999 630.4 378.999C634.116 378.999 637.089 378.256 639.318 376.77C641.583 375.248 642.716 373.23 642.716 370.718Z" fill="white"/>
<path d="M678.655 314.605V328.514H689.379V336.105H678.655V371.726C678.655 374.027 679.133 375.761 680.089 376.929C681.044 378.061 682.672 378.628 684.973 378.628C686.105 378.628 687.662 378.415 689.644 377.991V385.953C687.061 386.661 684.548 387.015 682.106 387.015C677.718 387.015 674.409 385.688 672.179 383.034C669.949 380.379 668.834 376.61 668.834 371.726V336.105H658.376V328.514H668.834V314.605H678.655Z" fill="white"/>
<path fill-rule="evenodd" clip-rule="evenodd" d="M727.16 278.512C727.16 272.154 732.314 267 738.671 267H1063.55C1069.91 267 1075.07 272.154 1075.07 278.512V420.488C1075.07 426.846 1069.91 432 1063.55 432H738.671C732.314 432 727.16 426.846 727.16 420.488V278.512ZM977.937 308.66H988.182V363.392C988.182 370.788 985.953 376.575 981.493 380.751C977.07 384.927 971.159 387.015 963.763 387.015C956.083 387.015 950.102 385.051 945.819 381.123C941.537 377.194 939.396 371.691 939.396 364.613H949.588C949.588 369.037 950.792 372.487 953.198 374.965C955.64 377.442 959.162 378.681 963.763 378.681C967.974 378.681 971.372 377.353 973.955 374.699C976.574 372.045 977.901 368.329 977.937 363.551V308.66ZM1009.2 342.263C1013.2 345.909 1019.57 348.988 1028.32 351.5C1035.29 353.518 1040.1 355.57 1042.76 357.658C1045.41 359.711 1046.74 362.631 1046.74 366.418C1046.74 370.205 1045.3 373.195 1042.44 375.389C1039.57 377.584 1035.45 378.681 1030.07 378.681C1024.3 378.681 1019.68 377.336 1016.21 374.646C1012.78 371.921 1011.06 368.223 1011.06 363.551H1000.82C1000.82 368.046 1002.06 372.063 1004.53 375.602C1007.05 379.141 1010.6 381.937 1015.2 383.989C1019.8 386.007 1024.76 387.015 1030.07 387.015C1038.24 387.015 1044.77 385.139 1049.66 381.388C1054.54 377.601 1056.98 372.576 1056.98 366.312C1056.98 362.383 1056.1 358.968 1054.33 356.066C1052.59 353.164 1049.9 350.633 1046.26 348.474C1042.65 346.28 1037.62 344.281 1031.18 342.476C1024.78 340.671 1020.23 338.689 1017.54 336.53C1014.88 334.336 1013.56 331.664 1013.56 328.514C1013.56 324.586 1014.96 321.524 1017.75 319.33C1020.58 317.1 1024.51 315.986 1029.54 315.986C1034.95 315.986 1039.15 317.33 1042.12 320.02C1045.09 322.675 1046.58 326.337 1046.58 331.009H1056.82C1056.82 326.727 1055.67 322.781 1053.37 319.171C1051.11 315.561 1047.89 312.73 1043.71 310.677C1039.57 308.624 1034.85 307.598 1029.54 307.598C1021.75 307.598 1015.42 309.598 1010.53 313.597C1005.68 317.561 1003.26 322.586 1003.26 328.673C1003.26 334.053 1005.24 338.583 1009.2 342.263ZM876.276 359.357L870.118 365.781V385.953H860.297V304.413H870.118V353.73L875.374 347.413L893.264 328.514H905.208L882.859 352.509L907.809 385.953H896.29L876.276 359.357ZM917.047 376.557C916.056 377.69 915.56 379.105 915.56 380.804C915.56 382.432 916.056 383.795 917.047 384.892C918.073 385.989 919.595 386.537 921.612 386.537C923.629 386.537 925.151 385.989 926.177 384.892C927.239 383.795 927.77 382.432 927.77 380.804C927.77 379.105 927.239 377.69 926.177 376.557C925.151 375.425 923.629 374.858 921.612 374.858C919.595 374.858 918.073 375.425 917.047 376.557ZM809.547 328.514L809.865 335.734C814.254 330.213 819.987 327.452 827.065 327.452C839.204 327.452 845.327 334.3 845.433 347.997V385.953H835.612V347.944C835.577 343.803 834.621 340.742 832.745 338.76C830.905 336.778 828.021 335.787 824.092 335.787C820.907 335.787 818.111 336.636 815.705 338.335C813.298 340.034 811.422 342.263 810.077 345.024V385.953H800.256V328.514H809.547ZM774.669 385.953H784.49V328.514H774.669V385.953ZM773.872 313.278C773.872 311.686 774.35 310.341 775.306 309.244C776.297 308.147 777.748 307.598 779.659 307.598C781.57 307.598 783.021 308.147 784.012 309.244C785.003 310.341 785.498 311.686 785.498 313.278C785.498 314.871 785.003 316.198 784.012 317.26C783.021 318.321 781.57 318.852 779.659 318.852C777.748 318.852 776.297 318.321 775.306 317.26C774.35 316.198 773.872 314.871 773.872 313.278ZM748.232 385.953H758.053V304.413H748.232V385.953Z" fill="white"/>
</svg>
