<svg width="100" height="100" viewBox="0 0 100 100" fill="none" xmlns="http://www.w3.org/2000/svg">
<g clip-path="url(#clip0)">
<path d="M77.33 100H22.67C16.6575 100 10.8913 97.6116 6.63989 93.3601C2.38844 89.1087 0 83.3425 0 77.33L0 22.67C0 16.6575 2.38844 10.8913 6.63989 6.63989C10.8913 2.38844 16.6575 0 22.67 0L77.33 0C83.3425 0 89.1087 2.38844 93.3601 6.63989C97.6116 10.8913 100 16.6575 100 22.67V77.33C100 83.3425 97.6116 89.1087 93.3601 93.3601C89.1087 97.6116 83.3425 100 77.33 100V100Z" fill="url(#paint0_linear)"/>
<path d="M31 40.9102C31 33.9098 32.6187 28.3483 35.856 24.2256C39.0933 20.0752 43.382 18 48.7222 18C54.2007 18 58.4756 19.9368 61.5469 23.8105L61.9204 18.8301H68.9346V62.6582C68.9346 68.4688 67.2052 73.048 63.7466 76.396C60.3156 79.744 55.6948 81.418 49.8843 81.418C46.647 81.418 43.4788 80.7262 40.3799 79.3428C37.2809 77.9593 34.9152 76.064 33.2827 73.6567L37.2671 69.0498C40.5597 73.1172 44.5856 75.1509 49.3447 75.1509C53.0801 75.1509 55.9854 74.0994 58.0605 71.9966C60.1634 69.8937 61.2148 66.9331 61.2148 63.1147V59.2549C58.1436 62.7965 53.9517 64.5674 48.6392 64.5674C43.382 64.5674 39.1209 62.4507 35.856 58.2173C32.6187 53.9839 31 48.2148 31 40.9102ZM38.7197 41.7817C38.7197 46.8452 39.7573 50.8296 41.8325 53.7349C43.9077 56.6125 46.813 58.0513 50.5483 58.0513C55.3905 58.0513 58.946 55.8516 61.2148 51.4521V30.9492C58.863 26.6605 55.3351 24.5161 50.6313 24.5161C46.896 24.5161 43.9769 25.9688 41.874 28.874C39.7712 31.7793 38.7197 36.0819 38.7197 41.7817Z" fill="white"/>
</g>
<defs>
<linearGradient id="paint0_linear" x1="3.14" y1="10.68" x2="96.86" y2="89.32" gradientUnits="userSpaceOnUse">
<stop stop-color="#243ED7"/>
<stop offset="1" stop-color="#2431D0"/>
</linearGradient>
<clipPath id="clip0">
<rect width="100" height="100" fill="white"/>
</clipPath>
</defs>
</svg>
